<svg class="icon" viewBox="0 0 1024 1024" version="1.1" xmlns="http://www.w3.org/2000/svg" width="128" height="128"><path d="M779.3 622.1c-5.9-33.3-17.6-64.5-35.1-93.4-1-1.7-1.5-3.3-1.5-5.3V311.5c0-16-1.3-31.8-4.7-47.5-11.8-55.4-40-100.7-84.5-135.6-32.9-25.8-70.3-41-111.6-46.4-20.1-2.6-40.2-2.4-60.3 0.3-21.5 2.9-42.3 8.7-62.1 17.6-43.1 19.4-77.2 49.1-102.2 89.2-20.9 33.5-32.2 70.1-34.1 109.4-0.7 13.7-0.2 27.5-0.3 41.3 0 1.8 0.8 1.8 2.1 1.8h87.9c1.7 0 2.1-0.5 2-2.1-0.1-10.5-0.1-20.9 0-31.4 0.1-10.4 1.4-20.7 3.9-30.8 17.1-68 80.5-112 150.2-104 24.6 2.8 46.9 11.6 66.5 26.7 36 27.9 54.6 64.7 54.9 110.3 0.3 41.1 0.1 82.2 0.1 123.3v1.8c-0.3 0-0.5 0.1-0.6 0-0.7-0.4-1.4-0.7-2-1.1-39.5-22.8-82.1-34.8-127.6-36.3-26.5-0.8-52.5 2.1-78.1 9-57.7 15.7-105.3 47-142.4 93.8-36 45.3-55.2 97.2-58.2 155-1.3 25 0.7 49.8 6.6 74.2 18.6 76.4 61.9 134.7 129.6 174.4 39.6 23.2 82.8 34.7 128.7 35.8 22.2 0.5 44.1-1.7 65.8-6.6 23.1-5.3 45.1-13.3 66.1-24.4 30.3-15.9 56.7-36.7 79-62.7 38.7-45.1 60.5-97.5 65.3-156.8 1.7-22.6 0.6-45.2-3.4-67.6z m-266.8 226c-99 0-179.2-80-179.2-178.9-0.1-98.9 80.2-179.2 179-179.2s178.9 80.2 179 179c0.1 98.8-80.1 179.1-178.8 179.1z" fill="#F58112"></path><path d="M437.2 669.8c0.1-42 34.1-75.9 76.1-75.9 41.9 0.1 75.9 34.3 75.8 76.2-0.1 42-34.3 75.8-76.2 75.7-41.9 0-75.7-34.1-75.7-76z" fill="#F58112"></path></svg>